<?xml version="1.0" encoding="UTF-8" standalone="no"?>
<!-- Generator: Adobe Illustrator 16.0.3, SVG Export Plug-In . SVG Version: 6.00 Build 0)  -->

<svg
   xmlns:dc="http://purl.org/dc/elements/1.1/"
   xmlns:cc="http://creativecommons.org/ns#"
   xmlns:rdf="http://www.w3.org/1999/02/22-rdf-syntax-ns#"
   xmlns:svg="http://www.w3.org/2000/svg"
   xmlns="http://www.w3.org/2000/svg"
   xmlns:sodipodi="http://sodipodi.sourceforge.net/DTD/sodipodi-0.dtd"
   xmlns:inkscape="http://www.inkscape.org/namespaces/inkscape"
   version="1.1"
   id="Layer_1"
   x="0px"
   y="0px"
   width="258.52301"
   height="130.35699"
   viewBox="0 0 258.52301 130.357"
   enable-background="new 0 0 566.93 283.465"
   xml:space="preserve"
   inkscape:version="0.91 r13725"
   sodipodi:docname="deck-logo.svg"><metadata
     id="metadata61"><rdf:RDF><cc:Work
         rdf:about=""><dc:format>image/svg+xml</dc:format><dc:type
           rdf:resource="http://purl.org/dc/dcmitype/StillImage" /><dc:title></dc:title></cc:Work></rdf:RDF></metadata><defs
     id="defs59" /><sodipodi:namedview
     pagecolor="#ffffff"
     bordercolor="#666666"
     borderopacity="1"
     objecttolerance="10"
     gridtolerance="10"
     guidetolerance="10"
     inkscape:pageopacity="0"
     inkscape:pageshadow="2"
     inkscape:window-width="1095"
     inkscape:window-height="601"
     id="namedview57"
     showgrid="false"
     inkscape:zoom="0.77441738"
     inkscape:cx="133.995"
     inkscape:cy="32.621502"
     inkscape:window-x="0"
     inkscape:window-y="0"
     inkscape:window-maximized="0"
     inkscape:current-layer="g3"
     fit-margin-top="0"
     fit-margin-left="0"
     fit-margin-right="0"
     fit-margin-bottom="0" /><g
     id="g3"
     transform="translate(-149.47,-43.997)"><path
       d="m 177.714,140.306 0,-64.705 c 0,-3.799 3.092,-6.89 6.89,-6.89 l 61.174,0 0,-15.381 -86.974,0 0,86.978 2.695,0 0,-0.002 16.215,0 z"
       id="path5"
       inkscape:connector-curvature="0"
       style="fill:#7a7b7d" /><path
       d="m 226.094,149.639 -39.048,0 0,0.002 39.348,0 c -0.159,0 -0.261,-0.002 -0.3,-0.002 z"
       id="path7"
       inkscape:connector-curvature="0"
       style="fill:#ffffff" /><path
       d="m 255.109,78.044 -4.666,0 -4.667,0 -58.73,0 0,62.262 39.163,0 c 0.199,-0.006 10.139,0.105 15.984,-5.637 1.695,-1.664 2.874,-3.674 3.583,-6.039 0.525,-1.756 0.803,-3.703 0.803,-5.883 l 0,-1.303 c 0,-2.18 -0.277,-4.125 -0.803,-5.879 -0.715,-2.384 -1.906,-4.403 -3.618,-6.075 -5.825,-5.684 -15.757,-5.604 -15.835,-5.604 l -9.042,0 0,28.114 -9.333,0 0,-37.446 18.26,0 c 0.398,-0.029 11.084,-0.179 19.568,5.863 1.001,0.713 1.979,1.493 2.898,2.391 0.633,0.617 1.219,1.265 1.768,1.936 2.264,2.763 3.809,5.998 4.666,9.65 0.517,2.201 0.803,4.543 0.803,7.051 l 0,1.303 c 0,2.508 -0.287,4.85 -0.803,7.051 -0.857,3.654 -2.402,6.889 -4.666,9.652 -0.549,0.67 -1.135,1.318 -1.768,1.934 -1.468,1.434 -3.069,2.611 -4.717,3.59 -7.437,4.422 -15.846,4.666 -17.565,4.666 l -39.348,0 0,15.381 73.569,0 13.404,-15.33 0,-71.648 -18.908,0 z"
       id="path9"
       inkscape:connector-curvature="0"
       style="fill:#ffffff" /><path
       d="m 276.464,68.711 -21.354,0 0,-17.825 c 0,-3.798 -3.09,-6.889 -6.889,-6.889 l -91.861,0 c -3.799,0 -6.89,3.091 -6.89,6.889 l 0,91.865 c 0,3.799 3.091,6.89 6.89,6.89 l 21.354,0 0,17.823 c 0,3.8 3.092,6.89 6.89,6.89 l 80.25,0 18.5,-21.154 0,-77.599 c -10e-4,-3.799 -3.092,-6.89 -6.89,-6.89 z m -98.75,6.89 0,64.705 -16.215,0 0,0.002 -2.695,0 0,-86.978 86.974,0 0,15.381 -61.174,0 c -3.799,0 -6.89,3.091 -6.89,6.89 z m 96.306,74.088 -13.404,15.33 -73.569,0 0,-15.379 0,-0.002 39.048,0 c 0.038,0 0.141,0.002 0.299,0.002 1.72,0 10.129,-0.244 17.565,-4.666 1.647,-0.979 3.249,-2.156 4.717,-3.591 0.633,-0.615 1.219,-1.264 1.768,-1.934 2.264,-2.764 3.809,-5.998 4.666,-9.652 0.517,-2.201 0.803,-4.543 0.803,-7.051 l 0,-1.303 c 0,-2.508 -0.287,-4.85 -0.803,-7.051 -0.857,-3.652 -2.402,-6.888 -4.666,-9.65 -0.549,-0.671 -1.135,-1.318 -1.768,-1.936 -0.919,-0.897 -1.897,-1.678 -2.898,-2.391 -8.484,-6.042 -19.17,-5.893 -19.568,-5.863 l -18.26,0 0,37.448 9.333,0 0,-28.114 9.042,0 c 0.078,0 10.01,-0.08 15.835,5.604 1.712,1.672 2.903,3.691 3.618,6.075 0.526,1.754 0.803,3.699 0.803,5.879 l 0,1.303 c 0,2.18 -0.276,4.127 -0.803,5.883 -0.71,2.365 -1.888,4.375 -3.583,6.039 -5.847,5.742 -15.785,5.631 -15.984,5.637 l -39.163,0 0,-62.262 58.73,0 4.667,0 4.666,0 18.911,0 -0.002,71.645 0,0 z"
       id="path11"
       inkscape:connector-curvature="0"
       style="fill:#5c5c5c" /><g
       id="g13" /><g
       id="g49"><path
         d="m 328.378,134.896 -25.898,0 c 0.187,3.463 1.367,6.218 3.542,8.264 2.176,2.046 4.984,3.068 8.427,3.068 4.805,0 9.233,-1.469 13.29,-4.406 l 0,7.005 c -2.242,1.469 -4.464,2.519 -6.666,3.147 -2.201,0.629 -4.783,0.943 -7.745,0.943 -4.057,0 -7.339,-0.826 -9.847,-2.479 -2.509,-1.653 -4.519,-3.877 -6.024,-6.67 -1.508,-2.794 -2.262,-6.027 -2.262,-9.701 0,-5.509 1.587,-9.988 4.764,-13.438 3.176,-3.449 7.299,-5.175 12.368,-5.175 4.885,0 8.779,1.679 11.689,5.037 2.908,3.358 4.362,7.856 4.362,13.497 l 0,0.908 0,0 z m -25.739,-4.29 18.533,0 c -0.188,-2.858 -1.055,-5.063 -2.603,-6.61 -1.548,-1.547 -3.63,-2.321 -6.245,-2.321 -2.614,0 -4.757,0.773 -6.424,2.321 -1.667,1.548 -2.754,3.752 -3.261,6.61 z"
         id="path51"
         inkscape:connector-curvature="0"
         style="fill:#5c5c5c" /><path
         d="m 363.883,143.907 0,7.083 c -3.656,1.338 -7.231,2.007 -10.728,2.007 -5.765,0 -10.36,-1.679 -13.79,-5.037 -3.43,-3.356 -5.144,-7.856 -5.144,-13.497 0,-5.692 1.667,-10.283 5.004,-13.772 3.335,-3.488 7.725,-5.233 13.169,-5.233 1.894,0 3.596,0.177 5.104,0.531 1.508,0.354 3.368,1.017 5.583,1.987 l 0,7.634 c -3.682,-2.309 -7.098,-3.463 -10.245,-3.463 -3.283,0 -5.979,1.135 -8.087,3.404 -2.107,2.269 -3.161,5.161 -3.161,8.676 0,3.699 1.141,6.638 3.422,8.814 2.28,2.178 5.356,3.268 9.227,3.268 2.802,0 6.017,-0.801 9.646,-2.402 z"
         id="path53"
         inkscape:connector-curvature="0"
         style="fill:#5c5c5c" /><path
         d="m 372.17,96.55 7.284,0 0,55.817 -7.284,0 0,-55.817 z m 23.972,19.615 8.649,0 -15.713,17.708 18.915,18.494 -9.772,0 -18.446,-18.475 16.367,-17.727 z"
         id="path55"
         inkscape:connector-curvature="0"
         style="fill:#5c5c5c" /></g></g></svg>