<?xml version="1.0" encoding="UTF-8" standalone="no"?>
<!-- Generator: Adobe Illustrator 16.0.3, SVG Export Plug-In . SVG Version: 6.00 Build 0)  -->

<svg
   xmlns:dc="http://purl.org/dc/elements/1.1/"
   xmlns:cc="http://creativecommons.org/ns#"
   xmlns:rdf="http://www.w3.org/1999/02/22-rdf-syntax-ns#"
   xmlns:svg="http://www.w3.org/2000/svg"
   xmlns="http://www.w3.org/2000/svg"
   xmlns:sodipodi="http://sodipodi.sourceforge.net/DTD/sodipodi-0.dtd"
   xmlns:inkscape="http://www.inkscape.org/namespaces/inkscape"
   version="1.1"
   id="Layer_1"
   x="0px"
   y="0px"
   width="133.884"
   height="130.35699"
   viewBox="0 0 133.884 130.357"
   enable-background="new 0 0 566.93 283.465"
   xml:space="preserve"
   inkscape:version="0.91 r13725"
   sodipodi:docname="deck-mark.svg"><metadata
     id="metadata61"><rdf:RDF><cc:Work
         rdf:about=""><dc:format>image/svg+xml</dc:format><dc:type
           rdf:resource="http://purl.org/dc/dcmitype/StillImage" /><dc:title></dc:title></cc:Work></rdf:RDF></metadata><defs
     id="defs59" /><sodipodi:namedview
     pagecolor="#ffffff"
     bordercolor="#666666"
     borderopacity="1"
     objecttolerance="10"
     gridtolerance="10"
     guidetolerance="10"
     inkscape:pageopacity="0"
     inkscape:pageshadow="2"
     inkscape:window-width="1095"
     inkscape:window-height="601"
     id="namedview57"
     showgrid="false"
     inkscape:zoom="1.0951916"
     inkscape:cx="81.511384"
     inkscape:cy="79.042126"
     inkscape:window-x="0"
     inkscape:window-y="0"
     inkscape:window-maximized="0"
     inkscape:current-layer="g3"
     fit-margin-top="0"
     fit-margin-left="0"
     fit-margin-right="0"
     fit-margin-bottom="0" /><g
     id="g3"
     transform="translate(-149.47,-43.997)"><path
       d="m 177.714,140.306 0,-64.705 c 0,-3.799 3.092,-6.89 6.89,-6.89 l 61.174,0 0,-15.381 -86.974,0 0,86.978 2.695,0 0,-0.002 16.215,0 z"
       id="path5"
       inkscape:connector-curvature="0"
       style="fill:#7a7b7d" /><path
       d="m 226.094,149.639 -39.048,0 0,0.002 39.348,0 c -0.159,0 -0.261,-0.002 -0.3,-0.002 z"
       id="path7"
       inkscape:connector-curvature="0"
       style="fill:#ffffff" /><path
       d="m 255.109,78.044 -4.666,0 -4.667,0 -58.73,0 0,62.262 39.163,0 c 0.199,-0.006 10.139,0.105 15.984,-5.637 1.695,-1.664 2.874,-3.674 3.583,-6.039 0.525,-1.756 0.803,-3.703 0.803,-5.883 l 0,-1.303 c 0,-2.18 -0.277,-4.125 -0.803,-5.879 -0.715,-2.384 -1.906,-4.403 -3.618,-6.075 -5.825,-5.684 -15.757,-5.604 -15.835,-5.604 l -9.042,0 0,28.114 -9.333,0 0,-37.446 18.26,0 c 0.398,-0.029 11.084,-0.179 19.568,5.863 1.001,0.713 1.979,1.493 2.898,2.391 0.633,0.617 1.219,1.265 1.768,1.936 2.264,2.763 3.809,5.998 4.666,9.65 0.517,2.201 0.803,4.543 0.803,7.051 l 0,1.303 c 0,2.508 -0.287,4.85 -0.803,7.051 -0.857,3.654 -2.402,6.889 -4.666,9.652 -0.549,0.67 -1.135,1.318 -1.768,1.934 -1.468,1.434 -3.069,2.611 -4.717,3.59 -7.437,4.422 -15.846,4.666 -17.565,4.666 l -39.348,0 0,15.381 73.569,0 13.404,-15.33 0,-71.648 -18.908,0 z"
       id="path9"
       inkscape:connector-curvature="0"
       style="fill:#ffffff" /><path
       d="m 276.464,68.711 -21.354,0 0,-17.825 c 0,-3.798 -3.09,-6.889 -6.889,-6.889 l -91.861,0 c -3.799,0 -6.89,3.091 -6.89,6.889 l 0,91.865 c 0,3.799 3.091,6.89 6.89,6.89 l 21.354,0 0,17.823 c 0,3.8 3.092,6.89 6.89,6.89 l 80.25,0 18.5,-21.154 0,-77.599 c -10e-4,-3.799 -3.092,-6.89 -6.89,-6.89 z m -98.75,6.89 0,64.705 -16.215,0 0,0.002 -2.695,0 0,-86.978 86.974,0 0,15.381 -61.174,0 c -3.799,0 -6.89,3.091 -6.89,6.89 z m 96.306,74.088 -13.404,15.33 -73.569,0 0,-15.379 0,-0.002 39.048,0 c 0.038,0 0.141,0.002 0.299,0.002 1.72,0 10.129,-0.244 17.565,-4.666 1.647,-0.979 3.249,-2.156 4.717,-3.591 0.633,-0.615 1.219,-1.264 1.768,-1.934 2.264,-2.764 3.809,-5.998 4.666,-9.652 0.517,-2.201 0.803,-4.543 0.803,-7.051 l 0,-1.303 c 0,-2.508 -0.287,-4.85 -0.803,-7.051 -0.857,-3.652 -2.402,-6.888 -4.666,-9.65 -0.549,-0.671 -1.135,-1.318 -1.768,-1.936 -0.919,-0.897 -1.897,-1.678 -2.898,-2.391 -8.484,-6.042 -19.17,-5.893 -19.568,-5.863 l -18.26,0 0,37.448 9.333,0 0,-28.114 9.042,0 c 0.078,0 10.01,-0.08 15.835,5.604 1.712,1.672 2.903,3.691 3.618,6.075 0.526,1.754 0.803,3.699 0.803,5.879 l 0,1.303 c 0,2.18 -0.276,4.127 -0.803,5.883 -0.71,2.365 -1.888,4.375 -3.583,6.039 -5.847,5.742 -15.785,5.631 -15.984,5.637 l -39.163,0 0,-62.262 58.73,0 4.667,0 4.666,0 18.911,0 -0.002,71.645 0,0 z"
       id="path11"
       inkscape:connector-curvature="0"
       style="fill:#5c5c5c" /><g
       id="g13" /><g
       id="g49" /></g></svg>