<?xml version="1.0" encoding="UTF-8" standalone="no"?>
<!-- Generator: Adobe Illustrator 16.0.3, SVG Export Plug-In . SVG Version: 6.00 Build 0)  -->

<svg
   xmlns:dc="http://purl.org/dc/elements/1.1/"
   xmlns:cc="http://creativecommons.org/ns#"
   xmlns:rdf="http://www.w3.org/1999/02/22-rdf-syntax-ns#"
   xmlns:svg="http://www.w3.org/2000/svg"
   xmlns="http://www.w3.org/2000/svg"
   xmlns:sodipodi="http://sodipodi.sourceforge.net/DTD/sodipodi-0.dtd"
   xmlns:inkscape="http://www.inkscape.org/namespaces/inkscape"
   version="1.1"
   id="Layer_1"
   x="0px"
   y="0px"
   width="374.40399"
   height="207.46899"
   viewBox="0 0 374.404 207.469"
   enable-background="new 0 0 566.93 283.465"
   xml:space="preserve"
   inkscape:version="0.91 r13725"
   sodipodi:docname="deck-logo-full.svg"><metadata
     id="metadata61"><rdf:RDF><cc:Work
         rdf:about=""><dc:format>image/svg+xml</dc:format><dc:type
           rdf:resource="http://purl.org/dc/dcmitype/StillImage" /><dc:title></dc:title></cc:Work></rdf:RDF></metadata><defs
     id="defs59" /><sodipodi:namedview
     pagecolor="#ffffff"
     bordercolor="#666666"
     borderopacity="1"
     objecttolerance="10"
     gridtolerance="10"
     guidetolerance="10"
     inkscape:pageopacity="0"
     inkscape:pageshadow="2"
     inkscape:window-width="664"
     inkscape:window-height="480"
     id="namedview57"
     showgrid="false"
     inkscape:zoom="0.54680473"
     inkscape:cx="-77.974931"
     inkscape:cy="109.7335"
     inkscape:window-x="0"
     inkscape:window-y="0"
     inkscape:window-maximized="0"
     inkscape:current-layer="g3"
     fit-margin-top="0"
     fit-margin-left="0"
     fit-margin-right="0"
     fit-margin-bottom="0" /><g
     id="g3"
     transform="translate(-96.263,-43.997)"><path
       d="m 177.714,140.306 0,-64.705 c 0,-3.799 3.092,-6.89 6.89,-6.89 l 61.174,0 0,-15.381 -86.974,0 0,86.978 2.695,0 0,-0.002 16.215,0 z"
       id="path5"
       inkscape:connector-curvature="0"
       style="fill:#7a7b7d" /><path
       d="m 226.094,149.639 -39.048,0 0,0.002 39.348,0 c -0.159,0 -0.261,-0.002 -0.3,-0.002 z"
       id="path7"
       inkscape:connector-curvature="0"
       style="fill:#ffffff" /><path
       d="m 255.109,78.044 -4.666,0 -4.667,0 -58.73,0 0,62.262 39.163,0 c 0.199,-0.006 10.139,0.105 15.984,-5.637 1.695,-1.664 2.874,-3.674 3.583,-6.039 0.525,-1.756 0.803,-3.703 0.803,-5.883 l 0,-1.303 c 0,-2.18 -0.277,-4.125 -0.803,-5.879 -0.715,-2.384 -1.906,-4.403 -3.618,-6.075 -5.825,-5.684 -15.757,-5.604 -15.835,-5.604 l -9.042,0 0,28.114 -9.333,0 0,-37.446 18.26,0 c 0.398,-0.029 11.084,-0.179 19.568,5.863 1.001,0.713 1.979,1.493 2.898,2.391 0.633,0.617 1.219,1.265 1.768,1.936 2.264,2.763 3.809,5.998 4.666,9.65 0.517,2.201 0.803,4.543 0.803,7.051 l 0,1.303 c 0,2.508 -0.287,4.85 -0.803,7.051 -0.857,3.654 -2.402,6.889 -4.666,9.652 -0.549,0.67 -1.135,1.318 -1.768,1.934 -1.468,1.434 -3.069,2.611 -4.717,3.59 -7.437,4.422 -15.846,4.666 -17.565,4.666 l -39.348,0 0,15.381 73.569,0 13.404,-15.33 0,-71.648 -18.908,0 z"
       id="path9"
       inkscape:connector-curvature="0"
       style="fill:#ffffff" /><path
       d="m 276.464,68.711 -21.354,0 0,-17.825 c 0,-3.798 -3.09,-6.889 -6.889,-6.889 l -91.861,0 c -3.799,0 -6.89,3.091 -6.89,6.889 l 0,91.865 c 0,3.799 3.091,6.89 6.89,6.89 l 21.354,0 0,17.823 c 0,3.8 3.092,6.89 6.89,6.89 l 80.25,0 18.5,-21.154 0,-77.599 c -10e-4,-3.799 -3.092,-6.89 -6.89,-6.89 z m -98.75,6.89 0,64.705 -16.215,0 0,0.002 -2.695,0 0,-86.978 86.974,0 0,15.381 -61.174,0 c -3.799,0 -6.89,3.091 -6.89,6.89 z m 96.306,74.088 -13.404,15.33 -73.569,0 0,-15.379 0,-0.002 39.048,0 c 0.038,0 0.141,0.002 0.299,0.002 1.72,0 10.129,-0.244 17.565,-4.666 1.647,-0.979 3.249,-2.156 4.717,-3.591 0.633,-0.615 1.219,-1.264 1.768,-1.934 2.264,-2.764 3.809,-5.998 4.666,-9.652 0.517,-2.201 0.803,-4.543 0.803,-7.051 l 0,-1.303 c 0,-2.508 -0.287,-4.85 -0.803,-7.051 -0.857,-3.652 -2.402,-6.888 -4.666,-9.65 -0.549,-0.671 -1.135,-1.318 -1.768,-1.936 -0.919,-0.897 -1.897,-1.678 -2.898,-2.391 -8.484,-6.042 -19.17,-5.893 -19.568,-5.863 l -18.26,0 0,37.448 9.333,0 0,-28.114 9.042,0 c 0.078,0 10.01,-0.08 15.835,5.604 1.712,1.672 2.903,3.691 3.618,6.075 0.526,1.754 0.803,3.699 0.803,5.879 l 0,1.303 c 0,2.18 -0.276,4.127 -0.803,5.883 -0.71,2.365 -1.888,4.375 -3.583,6.039 -5.847,5.742 -15.785,5.631 -15.984,5.637 l -39.163,0 0,-62.262 58.73,0 4.667,0 4.666,0 18.911,0 -0.002,71.645 0,0 z"
       id="path11"
       inkscape:connector-curvature="0"
       style="fill:#5c5c5c" /><g
       id="g13"><path
         d="m 119.978,216.148 -18.528,35.318 -5.187,0 7.051,-13.441 -5.029,-21.877 4.871,0 3.59,16.072 8.138,-16.072 5.094,0 0,0 z"
         id="path15"
         inkscape:connector-curvature="0"
         style="fill:#424242" /><path
         d="m 131.965,215.438 c 2.9,0 5.225,0.928 6.975,2.78 1.749,1.854 2.624,4.32 2.624,7.401 0,4.266 -1.18,7.77 -3.536,10.512 -2.357,2.742 -5.257,4.113 -8.699,4.113 -3.031,0 -5.407,-0.924 -7.128,-2.768 -1.722,-1.846 -2.582,-4.41 -2.582,-7.693 0,-4.079 1.188,-7.49 3.564,-10.232 2.376,-2.742 5.302,-4.113 8.782,-4.113 z m 0,3.479 c -2.002,0 -3.728,1.121 -5.178,3.364 -1.45,2.242 -2.175,4.896 -2.175,7.96 0,1.827 0.435,3.317 1.305,4.469 0.87,1.152 1.95,1.728 3.241,1.728 2.039,0 3.784,-1.051 5.234,-3.148 1.448,-2.1 2.175,-4.739 2.175,-7.922 0,-1.965 -0.421,-3.529 -1.263,-4.697 -0.841,-1.17 -1.954,-1.754 -3.339,-1.754 z"
         id="path17"
         inkscape:connector-curvature="0"
         style="fill:#424242" /><path
         d="m 167.519,216.148 -3.678,23.359 -4.817,0 0.449,-3.961 c -2.976,2.878 -5.81,4.316 -8.503,4.316 -1.74,0 -3.214,-0.563 -4.421,-1.688 -1.207,-1.126 -1.81,-2.729 -1.81,-4.812 0,-0.594 0.046,-1.193 0.14,-1.803 l 2.414,-15.412 4.875,0 -2.411,15.41 c -0.074,0.508 -0.111,0.982 -0.111,1.424 0,2.336 0.955,3.504 2.864,3.504 2.003,0 4.595,-1.719 7.776,-5.154 l 2.357,-15.184 4.876,0 0,0.001 z"
         id="path19"
         inkscape:connector-curvature="0"
         style="fill:#424242" /><path
         d="m 171.769,216.048 0.337,-2.284 c 2.524,-0.746 3.789,-2.234 3.789,-4.47 -1.497,-0.593 -2.245,-1.474 -2.245,-2.642 0,-0.913 0.341,-1.653 1.023,-2.221 0.684,-0.567 1.549,-0.852 2.597,-0.852 1.028,0 1.894,0.39 2.596,1.168 0.702,0.777 1.052,1.761 1.052,2.945 0,1.912 -0.817,3.64 -2.456,5.18 -1.638,1.541 -3.868,2.601 -6.693,3.176 z"
         id="path21"
         inkscape:connector-curvature="0"
         style="fill:#424242" /><path
         d="m 184.197,216.148 -0.757,4.443 0.112,0.102 c 1.535,-1.979 2.753,-3.291 3.651,-3.936 0.899,-0.644 1.966,-0.965 3.202,-0.965 0.768,0 1.479,0.118 2.135,0.355 l 0,5.002 c -1.029,-0.524 -2.032,-0.787 -3.005,-0.787 -0.955,0 -1.808,0.216 -2.557,0.646 -0.749,0.432 -1.657,1.354 -2.725,2.768 -1.066,1.414 -1.62,2.272 -1.656,2.578 l -2.021,13.151 -4.874,0 3.62,-23.358 4.875,0 0,0.001 z"
         id="path23"
         inkscape:connector-curvature="0"
         style="fill:#424242" /><path
         d="m 212.331,233.415 -0.702,4.215 c -2.62,1.743 -5.49,2.615 -8.614,2.615 -3.256,0 -5.87,-1.028 -7.845,-3.085 -1.974,-2.057 -2.96,-4.795 -2.96,-8.215 0,-3.809 1.184,-7.012 3.55,-9.609 2.367,-2.598 5.263,-3.896 8.687,-3.896 2.619,0 4.799,0.91 6.539,2.729 1.74,1.819 2.61,4.168 2.61,7.046 0,0.711 -0.057,1.438 -0.168,2.185 l -16.108,0 c -0.15,0.777 -0.225,1.522 -0.225,2.233 0,2.149 0.649,3.847 1.95,5.091 1.301,1.244 2.934,1.866 4.897,1.866 2.392,-0.001 5.189,-1.059 8.389,-3.175 z m -14.263,-9.09 10.811,0 c 0,-1.625 -0.406,-2.907 -1.222,-3.847 -0.815,-0.94 -1.961,-1.41 -3.439,-1.41 -2.808,0 -4.858,1.752 -6.15,5.257 z"
         id="path25"
         inkscape:connector-curvature="0"
         style="fill:#424242" /><path
         d="m 240.929,204.038 -5.529,35.471 -4.875,0 5.528,-35.471 4.876,0 z"
         id="path27"
         inkscape:connector-curvature="0"
         style="fill:#424242" /><path
         d="m 253.458,215.438 c 2.9,0 5.225,0.928 6.975,2.78 1.749,1.854 2.624,4.32 2.624,7.401 0,4.266 -1.18,7.77 -3.536,10.512 -2.357,2.742 -5.257,4.113 -8.699,4.113 -3.031,0 -5.407,-0.924 -7.128,-2.768 -1.722,-1.846 -2.582,-4.41 -2.582,-7.693 0,-4.079 1.188,-7.49 3.563,-10.232 2.375,-2.742 5.303,-4.113 8.783,-4.113 z m 0,3.479 c -2.002,0 -3.728,1.121 -5.178,3.364 -1.45,2.242 -2.175,4.896 -2.175,7.96 0,1.827 0.435,3.317 1.305,4.469 0.87,1.152 1.95,1.728 3.241,1.728 2.039,0 3.784,-1.051 5.233,-3.148 1.449,-2.1 2.176,-4.739 2.176,-7.922 0,-1.965 -0.421,-3.529 -1.264,-4.697 -0.84,-1.17 -1.954,-1.754 -3.338,-1.754 z"
         id="path29"
         inkscape:connector-curvature="0"
         style="fill:#424242" /><path
         d="m 278.243,215.438 c 2.9,0 5.224,0.928 6.973,2.78 1.75,1.854 2.625,4.32 2.625,7.401 0,4.266 -1.18,7.77 -3.536,10.512 -2.357,2.742 -5.258,4.113 -8.699,4.113 -3.031,0 -5.407,-0.924 -7.128,-2.768 -1.723,-1.846 -2.582,-4.41 -2.582,-7.693 0,-4.079 1.188,-7.49 3.563,-10.232 2.375,-2.742 5.304,-4.113 8.784,-4.113 z m 0,3.479 c -2.002,0 -3.728,1.121 -5.178,3.364 -1.45,2.242 -2.175,4.896 -2.175,7.96 0,1.827 0.435,3.317 1.305,4.469 0.87,1.152 1.95,1.728 3.241,1.728 2.039,0 3.784,-1.051 5.233,-3.148 1.449,-2.1 2.176,-4.739 2.176,-7.922 0,-1.965 -0.422,-3.529 -1.264,-4.697 -0.84,-1.17 -1.954,-1.754 -3.338,-1.754 z"
         id="path31"
         inkscape:connector-curvature="0"
         style="fill:#424242" /><path
         d="m 300.324,204.038 -3.546,22.389 10.962,-10.276 6.205,0 -11.832,11.053 12.646,12.307 -6.208,0 -11.904,-11.869 -1.852,11.869 -4.816,0 5.473,-35.471 4.872,-0.002 0,0 z"
         id="path33"
         inkscape:connector-curvature="0"
         style="fill:#424242" /><path
         d="m 323.763,216.148 -3.62,23.359 -4.874,0 3.619,-23.359 4.875,0 z m -4.341,-7.311 c 0,-0.711 0.275,-1.315 0.827,-1.815 0.553,-0.498 1.212,-0.748 1.979,-0.748 0.767,0 1.427,0.25 1.979,0.748 0.553,0.5 0.828,1.104 0.828,1.815 0,0.694 -0.275,1.291 -0.828,1.79 -0.552,0.499 -1.211,0.749 -1.979,0.749 -0.768,0 -1.427,-0.25 -1.979,-0.749 -0.552,-0.499 -0.827,-1.096 -0.827,-1.79 z"
         id="path35"
         inkscape:connector-curvature="0"
         style="fill:#424242" /><path
         d="m 334.011,216.148 -0.655,4.134 0.131,0.082 c 2.749,-3.048 5.604,-4.57 8.559,-4.57 2.002,0 3.555,0.664 4.657,1.993 1.104,1.329 1.656,3.043 1.656,5.142 0,0.593 -0.057,1.21 -0.168,1.854 l -2.476,14.727 -4.819,0 2.356,-14.879 c 0.094,-0.523 0.141,-1.007 0.141,-1.447 0,-1.219 -0.282,-2.148 -0.845,-2.793 -0.563,-0.644 -1.267,-0.965 -2.109,-0.965 -0.488,0 -1.037,0.11 -1.646,0.33 -0.609,0.221 -1.263,0.559 -1.956,1.016 -0.694,0.457 -1.553,1.149 -2.575,2.08 -1.022,0.931 -1.556,1.522 -1.596,1.778 l -2.359,14.88 -4.817,0 3.62,-23.359 4.901,0 0,-0.003 z"
         id="path37"
         inkscape:connector-curvature="0"
         style="fill:#424242" /><path
         d="m 375.333,216.148 -0.505,3.453 -4.995,0 c 1.142,1.457 1.713,2.996 1.713,4.621 0,1.862 -0.465,3.504 -1.391,4.926 -0.926,1.422 -2.059,2.426 -3.396,3.01 -1.338,0.584 -3.063,1.05 -5.179,1.396 -2.114,0.346 -3.451,0.693 -4.013,1.04 -0.562,0.347 -0.842,0.759 -0.842,1.231 0,0.355 0.242,0.682 0.729,0.979 0.486,0.295 2.24,0.773 5.263,1.434 3.021,0.66 5.136,1.543 6.343,2.652 1.206,1.107 1.81,2.416 1.81,3.924 0,1.896 -0.991,3.479 -2.975,4.748 -1.983,1.271 -4.5,1.904 -7.549,1.904 -3.274,0 -5.964,-0.574 -8.068,-1.727 -2.104,-1.152 -3.157,-2.59 -3.157,-4.316 0,-2.251 2.479,-3.859 7.438,-4.824 -2.993,-0.998 -4.489,-2.369 -4.489,-4.113 0,-0.896 0.457,-1.738 1.375,-2.525 0.916,-0.787 2.16,-1.384 3.732,-1.79 -3.106,-1.337 -4.659,-3.571 -4.659,-6.703 0,-2.624 0.939,-4.833 2.82,-6.627 1.88,-1.794 4.14,-2.69 6.776,-2.69 l 13.219,0 0,-0.003 z m -14.592,31.995 c 1.665,0 2.993,-0.271 3.985,-0.813 0.991,-0.542 1.487,-1.244 1.487,-2.106 0,-0.848 -0.814,-1.613 -2.441,-2.299 -1.628,-0.686 -2.732,-1.027 -3.313,-1.027 -0.729,0 -2.024,0.352 -3.887,1.054 -1.861,0.702 -2.793,1.493 -2.793,2.374 0,0.863 0.622,1.549 1.867,2.057 1.245,0.506 2.944,0.76 5.095,0.76 z m 1.095,-18.257 c 1.478,0 2.688,-0.546 3.634,-1.638 0.943,-1.092 1.417,-2.365 1.417,-3.821 0,-1.37 -0.436,-2.491 -1.306,-3.364 -0.869,-0.871 -1.969,-1.308 -3.298,-1.308 -1.31,0 -2.487,0.55 -3.536,1.65 -1.047,1.101 -1.569,2.353 -1.569,3.758 0,1.371 0.438,2.501 1.317,3.39 0.879,0.889 1.993,1.333 3.341,1.333 z"
         id="path39"
         inkscape:connector-curvature="0"
         style="fill:#424242" /><path
         d="m 413.935,216.148 -3.633,23.359 -4.875,0 0.479,-2.691 -0.121,-0.127 c -2.263,2.185 -4.581,3.275 -6.956,3.275 -2.355,0 -4.361,-0.9 -6.017,-2.704 -1.655,-1.803 -2.482,-3.981 -2.482,-6.538 0,-4.435 1.539,-8.091 4.617,-10.969 3.078,-2.878 7.377,-4.316 12.897,-4.316 2.246,10e-4 4.276,0.239 6.091,0.711 z m -7.449,16.609 2.112,-13.483 c -0.523,-0.034 -1.028,-0.051 -1.516,-0.051 -3.836,0 -6.754,1.104 -8.756,3.313 -2.002,2.209 -3.003,4.676 -3.003,7.4 0,1.879 0.482,3.416 1.448,4.608 0.965,1.192 2.188,1.79 3.669,1.79 1.18,0 2.473,-0.527 3.879,-1.586 1.407,-1.057 2.129,-1.721 2.167,-1.991 z"
         id="path41"
         inkscape:connector-curvature="0"
         style="fill:#424242" /><path
         d="m 430.689,216.148 -0.53,3.453 -5.136,0 -2.51,12.771 c -0.131,0.644 -0.196,1.187 -0.196,1.626 0,1.523 0.908,2.286 2.727,2.286 1.349,0 2.922,-0.466 4.721,-1.396 l -0.281,4.315 c -1.796,0.694 -3.582,1.041 -5.359,1.041 -2.113,0 -3.783,-0.486 -5.01,-1.46 -1.226,-0.975 -1.838,-2.256 -1.838,-3.848 0,-0.39 0.04,-0.787 0.121,-1.195 l 2.712,-14.141 -4.545,0 0.594,-3.453 4.721,0 0.943,-4.772 4.818,0 -0.938,4.772 4.986,0 z"
         id="path43"
         inkscape:connector-curvature="0"
         style="fill:#424242" /><path
         d="m 454.264,216.148 -3.62,23.359 -4.874,0 3.62,-23.359 4.874,0 z m -4.34,-7.311 c 0,-0.711 0.274,-1.315 0.827,-1.815 0.552,-0.498 1.212,-0.748 1.979,-0.748 0.768,0 1.427,0.25 1.979,0.748 0.553,0.5 0.828,1.104 0.828,1.815 0,0.694 -0.275,1.291 -0.828,1.79 -0.552,0.499 -1.211,0.749 -1.979,0.749 -0.767,0 -1.427,-0.25 -1.979,-0.749 -0.553,-0.499 -0.827,-1.096 -0.827,-1.79 z"
         id="path45"
         inkscape:connector-curvature="0"
         style="fill:#424242" /><path
         d="m 470.667,216.148 -0.529,3.453 -5.137,0 -2.511,12.771 c -0.131,0.644 -0.195,1.187 -0.195,1.626 0,1.523 0.907,2.286 2.726,2.286 1.349,0 2.922,-0.466 4.721,-1.396 l -0.28,4.315 c -1.797,0.694 -3.582,1.041 -5.359,1.041 -2.114,0 -3.784,-0.486 -5.01,-1.46 -1.227,-0.975 -1.838,-2.256 -1.838,-3.848 0,-0.39 0.04,-0.787 0.12,-1.195 l 2.713,-14.141 -4.546,0 0.595,-3.453 4.72,0 0.944,-4.772 4.817,0 -0.938,4.772 4.987,0 z"
         id="path47"
         inkscape:connector-curvature="0"
         style="fill:#424242" /></g><g
       id="g49"><path
         d="m 328.378,134.896 -25.898,0 c 0.187,3.463 1.367,6.218 3.542,8.264 2.176,2.046 4.984,3.068 8.427,3.068 4.805,0 9.233,-1.469 13.29,-4.406 l 0,7.005 c -2.242,1.469 -4.464,2.519 -6.666,3.147 -2.201,0.629 -4.783,0.943 -7.745,0.943 -4.057,0 -7.339,-0.826 -9.847,-2.479 -2.509,-1.653 -4.519,-3.877 -6.024,-6.67 -1.508,-2.794 -2.262,-6.027 -2.262,-9.701 0,-5.509 1.587,-9.988 4.764,-13.438 3.176,-3.449 7.299,-5.175 12.368,-5.175 4.885,0 8.779,1.679 11.689,5.037 2.908,3.358 4.362,7.856 4.362,13.497 l 0,0.908 0,0 z m -25.739,-4.29 18.533,0 c -0.188,-2.858 -1.055,-5.063 -2.603,-6.61 -1.548,-1.547 -3.63,-2.321 -6.245,-2.321 -2.614,0 -4.757,0.773 -6.424,2.321 -1.667,1.548 -2.754,3.752 -3.261,6.61 z"
         id="path51"
         inkscape:connector-curvature="0"
         style="fill:#5c5c5c" /><path
         d="m 363.883,143.907 0,7.083 c -3.656,1.338 -7.231,2.007 -10.728,2.007 -5.765,0 -10.36,-1.679 -13.79,-5.037 -3.43,-3.356 -5.144,-7.856 -5.144,-13.497 0,-5.692 1.667,-10.283 5.004,-13.772 3.335,-3.488 7.725,-5.233 13.169,-5.233 1.894,0 3.596,0.177 5.104,0.531 1.508,0.354 3.368,1.017 5.583,1.987 l 0,7.634 c -3.682,-2.309 -7.098,-3.463 -10.245,-3.463 -3.283,0 -5.979,1.135 -8.087,3.404 -2.107,2.269 -3.161,5.161 -3.161,8.676 0,3.699 1.141,6.638 3.422,8.814 2.28,2.178 5.356,3.268 9.227,3.268 2.802,0 6.017,-0.801 9.646,-2.402 z"
         id="path53"
         inkscape:connector-curvature="0"
         style="fill:#5c5c5c" /><path
         d="m 372.17,96.55 7.284,0 0,55.817 -7.284,0 0,-55.817 z m 23.972,19.615 8.649,0 -15.713,17.708 18.915,18.494 -9.772,0 -18.446,-18.475 16.367,-17.727 z"
         id="path55"
         inkscape:connector-curvature="0"
         style="fill:#5c5c5c" /></g></g></svg>